<?xml version="1.0" standalone="no"?>
<!DOCTYPE svg PUBLIC "-//W3C//DTD SVG 20010904//EN"
 "http://www.w3.org/TR/2001/REC-SVG-20010904/DTD/svg10.dtd">
<svg version="1.0" xmlns="http://www.w3.org/2000/svg"
 width="941.000000pt" height="941.000000pt" viewBox="0 0 941.000000 941.000000"
 preserveAspectRatio="xMidYMid meet">
<metadata>
Created by potrace 1.14, written by Peter Selinger 2001-2017
</metadata>
<g transform="translate(0.000000,941.000000) scale(0.100000,-0.100000)"
fill="#000000" stroke="none">
<path d="M4784 9392 c-61 -29 -97 -81 -127 -180 -30 -96 -55 -192 -63 -236 -3
-16 -7 -32 -9 -36 -2 -4 -7 -22 -10 -41 -3 -19 -40 -155 -81 -304 -42 -148
-103 -367 -135 -485 -33 -118 -69 -244 -79 -280 -29 -98 -53 -185 -52 -185 1
0 -5 -22 -14 -50 -9 -27 -29 -97 -45 -155 -17 -58 -31 -109 -33 -115 -1 -5 -8
-30 -15 -55 -7 -25 -49 -173 -93 -330 -62 -218 -82 -301 -83 -352 l-1 -67 -59
-42 c-80 -56 -107 -79 -270 -238 -77 -75 -171 -163 -210 -196 -38 -33 -79 -68
-90 -78 -31 -29 -253 -200 -284 -220 -28 -17 -28 -17 -88 22 -41 26 -79 64
-119 117 -262 349 -781 672 -1204 750 -14 3 -41 9 -60 14 -19 5 -62 12 -95 16
-33 3 -80 9 -105 13 -88 14 -492 4 -590 -14 -9 -2 -43 -6 -75 -10 -79 -10
-114 -28 -115 -61 0 -6 20 -37 45 -69 62 -80 118 -197 175 -365 73 -214 109
-287 225 -455 86 -124 140 -182 280 -298 333 -278 618 -390 995 -391 101 -1
227 9 298 23 23 5 42 6 42 3 0 -3 -7 -44 -16 -91 -30 -158 -7 -265 76 -355 60
-65 136 -100 213 -98 71 2 97 -14 97 -62 -1 -58 -28 -90 -190 -226 -139 -117
-160 -137 -195 -195 -27 -45 -48 -126 -36 -138 7 -7 135 41 256 97 118 54 297
116 380 131 118 21 341 26 510 9 144 -13 182 -11 209 15 30 29 42 77 42 169
-1 70 -3 75 -31 98 -32 26 -65 32 -195 39 -102 6 -427 6 -455 1 -59 -12 -135
-17 -153 -12 -22 7 -36 47 -27 77 8 24 47 45 100 54 43 7 201 7 250 1 68 -10
236 -20 325 -20 105 -1 134 10 167 61 15 22 17 44 14 113 -8 200 -4 274 18
354 31 113 108 259 176 332 5 6 23 28 40 48 43 51 54 47 49 -19 -6 -72 -25
-126 -89 -255 -67 -133 -96 -231 -103 -342 -10 -185 58 -292 221 -343 64 -20
103 -27 237 -41 45 -5 414 -4 460 1 19 2 71 6 115 9 77 6 213 21 283 31 50 7
108 41 136 78 31 41 48 93 80 252 37 180 39 197 40 371 1 160 1 161 30 204 29
44 29 44 38 20 42 -113 60 -300 43 -440 -13 -106 -69 -298 -99 -342 -21 -30
-20 -65 2 -77 9 -5 62 -12 117 -16 55 -3 116 -8 135 -10 243 -25 526 -24 698
1 164 24 236 95 226 226 -1 24 -14 90 -28 148 -14 58 -29 140 -33 184 l-6 79
114 -9 c63 -5 175 -9 249 -8 120 0 148 4 253 33 466 127 768 328 994 657 40
59 163 292 163 310 0 9 78 213 120 314 33 81 101 208 133 252 11 15 18 31 14
34 -10 10 -212 51 -298 60 -139 16 -473 9 -575 -10 -12 -3 -38 -7 -57 -10 -91
-15 -241 -51 -334 -81 -249 -82 -459 -213 -772 -484 -74 -64 -177 -153 -230
-198 l-96 -83 -26 28 c-14 15 -63 61 -109 102 -46 41 -92 83 -103 94 -38 36
-213 169 -297 226 -55 37 -86 64 -86 76 -1 25 -14 178 -20 234 -3 25 -15 77
-26 115 -11 39 -26 93 -33 120 -8 28 -25 93 -40 145 -15 52 -28 102 -30 110
-2 8 -34 121 -70 250 -36 129 -68 242 -70 250 -7 28 -103 374 -135 485 -17 61
-33 118 -35 129 -3 10 -11 42 -19 70 -8 28 -51 182 -95 341 -44 160 -85 304
-90 320 -5 17 -22 75 -36 130 -48 181 -97 233 -227 241 -58 4 -81 1 -114 -14z
m186 -92 c18 -13 35 -39 46 -73 9 -28 20 -57 25 -62 14 -19 26 -90 18 -112
-11 -29 -76 -72 -225 -149 -134 -69 -176 -78 -182 -37 -2 12 15 81 38 155 23
73 48 156 57 183 25 84 80 126 156 119 21 -2 52 -13 67 -24z m159 -436 c41
-52 45 -181 7 -258 l-26 -53 -290 -141 c-160 -78 -296 -143 -303 -145 -30 -5
27 171 88 275 97 166 245 287 405 333 70 21 96 18 119 -11z m101 -456 c18 -19
75 -182 81 -228 9 -85 -20 -115 -176 -179 -68 -28 -272 -114 -452 -192 -180
-77 -332 -141 -338 -142 -28 -6 21 215 69 311 37 74 114 158 179 197 23 13 83
38 132 55 50 18 141 59 204 92 210 111 263 126 301 86z m134 -477 c32 -35 89
-220 90 -290 1 -61 0 -64 -37 -97 -40 -34 -222 -117 -867 -396 -190 -82 -360
-156 -378 -164 -19 -9 -35 -14 -37 -12 -2 2 16 78 41 168 25 91 47 172 49 180
19 92 41 152 60 170 12 12 180 89 371 171 192 82 358 154 369 159 60 29 302
130 311 130 6 0 19 -9 28 -19z m143 -536 c20 -14 40 -65 74 -185 7 -25 13 -47
14 -50 7 -24 17 -86 20 -117 3 -48 -10 -85 -38 -111 -22 -20 -123 -75 -182
-99 -17 -7 -64 -26 -105 -43 -41 -17 -82 -31 -90 -31 -8 0 -125 2 -260 4 -283
5 -335 0 -520 -50 -115 -31 -235 -72 -324 -112 l-66 -30 0 38 c0 44 29 138 54
176 21 32 78 60 576 278 206 91 443 195 525 232 282 127 283 127 322 100z
m208 -678 c8 -28 15 -86 15 -129 l0 -78 -107 71 c-60 39 -130 83 -158 97 l-50
25 45 20 c25 11 81 35 125 54 l80 33 17 -21 c10 -12 25 -44 33 -72z m2702 -21
c2 -2 -15 -17 -37 -32 -284 -196 -466 -416 -689 -834 -68 -128 -124 -201 -211
-271 -225 -182 -572 -203 -922 -55 -71 30 -111 130 -88 217 9 33 88 156 128
199 10 9 28 33 42 51 40 54 239 250 316 311 238 189 552 336 819 382 17 3 54
10 84 16 29 5 101 13 160 16 58 4 107 8 109 9 4 3 285 -5 289 -9z m178 -128
c-13 -76 -101 -330 -153 -438 -48 -101 -136 -248 -177 -299 -132 -161 -209
-235 -344 -331 -178 -127 -425 -220 -656 -246 -79 -9 -201 -11 -245 -4 -29 5
-22 7 39 14 208 22 408 115 552 259 117 116 172 195 281 407 76 148 89 171
153 255 121 161 270 286 446 375 56 27 103 50 106 50 3 0 2 -19 -2 -42z
m-7287 18 c154 -12 363 -56 517 -109 438 -152 790 -410 1017 -745 117 -173
117 -249 1 -338 -40 -30 -170 -87 -224 -98 -13 -3 -49 -10 -79 -16 -163 -33
-373 0 -520 82 -58 32 -164 114 -190 145 -60 73 -88 115 -151 229 -226 405
-426 633 -697 794 -39 24 -71 45 -69 47 2 2 42 6 88 9 46 4 85 7 86 8 3 3 141
-2 221 -8z m-438 -137 c8 -3 31 -13 50 -22 60 -25 200 -137 311 -247 124 -124
201 -234 295 -427 37 -76 70 -140 73 -143 4 -3 22 -30 42 -60 76 -116 212
-240 324 -294 66 -32 125 -56 125 -51 0 3 12 0 28 -6 60 -24 163 -37 289 -36
73 1 129 -1 125 -4 -22 -20 -142 -49 -230 -56 -145 -12 -439 59 -627 152 -125
61 -319 187 -364 237 -43 46 -160 218 -210 308 -46 83 -331 648 -331 656 0 7
81 2 100 -7z"/>
<path d="M5675 4430 c-78 -17 -109 -65 -109 -171 0 -128 67 -173 209 -142 58
12 317 12 405 -1 19 -3 58 -8 85 -11 178 -22 323 -61 468 -124 27 -12 51 -21
53 -21 8 0 4 77 -6 131 -22 117 -109 243 -202 290 -39 20 -60 22 -248 25 -113
2 -221 5 -240 8 -19 2 -98 8 -175 11 -77 4 -156 8 -175 9 -19 1 -49 -1 -65 -4z"/>
<path d="M4120 4372 c-26 -27 -50 -85 -50 -124 0 -33 32 -97 55 -112 32 -21
46 -20 140 10 147 47 252 65 405 69 211 6 344 -20 539 -104 72 -31 92 -36 123
-29 51 10 104 47 121 83 37 78 30 140 -23 190 -39 37 -79 39 -217 10 -158 -34
-172 -35 -363 -42 -196 -6 -358 9 -557 52 -63 14 -121 25 -130 25 -8 0 -27
-13 -43 -28z"/>
<path d="M4460 4090 c-205 -35 -352 -80 -396 -122 -79 -75 -64 -248 22 -250
17 -1 55 9 86 20 108 40 221 55 423 56 294 1 450 -15 574 -59 74 -26 122 -28
158 -5 82 50 88 168 12 239 -37 34 -230 97 -389 126 -19 4 -114 8 -210 10
-136 3 -199 -1 -280 -15z"/>
<path d="M5759 4015 c-2 -2 -40 -6 -84 -10 -81 -6 -141 -19 -161 -32 -44 -32
-58 -129 -30 -198 27 -63 53 -69 271 -62 161 6 280 -5 490 -44 205 -38 410
-89 466 -115 66 -31 100 -27 125 12 24 36 20 104 -10 169 -60 131 -118 170
-306 208 -303 62 -408 75 -601 75 -86 1 -158 -1 -160 -3z"/>
<path d="M3308 3994 c-117 -18 -380 -86 -448 -117 -123 -55 -202 -139 -254
-269 -33 -85 -33 -101 4 -132 34 -28 55 -25 111 15 50 35 174 87 285 118 133
37 237 55 444 76 59 6 95 10 180 21 68 8 66 8 115 -3 76 -18 145 23 164 96 31
114 17 192 -35 205 -45 12 -474 4 -566 -10z"/>
<path d="M4400 3679 c-108 -14 -262 -50 -300 -69 -19 -10 -47 -31 -62 -47 -25
-26 -67 -134 -81 -211 l-7 -33 48 6 c26 3 61 8 77 10 17 2 62 7 100 10 39 4
77 9 86 10 47 9 261 19 376 18 165 -2 333 -25 462 -63 129 -38 169 -39 206 -2
56 56 61 126 14 193 -68 95 -156 153 -245 164 -158 18 -578 27 -674 14z"/>
<path d="M3727 3614 c-2 -2 -170 -25 -282 -39 -319 -39 -523 -87 -634 -151
-97 -56 -162 -154 -181 -271 -12 -71 -13 -163 -2 -163 4 0 80 32 167 71 446
198 572 234 835 238 58 1 116 5 130 8 76 18 130 105 127 205 -2 52 -6 63 -31
84 -23 20 -38 24 -77 23 -27 -2 -50 -4 -52 -5z"/>
<path d="M5507 3611 c-35 -12 -64 -47 -71 -86 -3 -16 -6 -77 -7 -134 -1 -90 1
-106 17 -118 14 -10 53 -11 183 -5 251 11 544 5 651 -13 14 -2 50 -7 80 -10
88 -10 240 -43 323 -70 89 -29 117 -24 142 25 36 69 21 164 -32 212 -38 34
-176 75 -448 132 -124 25 -134 27 -313 52 -126 18 -485 28 -525 15z"/>
<path d="M4390 3263 c-179 -16 -355 -50 -412 -79 -67 -35 -98 -89 -98 -174 0
-56 22 -119 42 -121 33 -4 46 0 83 23 87 55 215 75 460 72 186 -2 247 -12 505
-84 74 -21 154 -41 177 -45 52 -8 102 7 134 41 51 54 20 189 -62 272 -61 62
-83 68 -288 78 -74 3 -144 8 -155 10 -26 6 -339 11 -386 7z"/>
<path d="M3560 3202 c-183 -18 -388 -78 -605 -177 -242 -110 -242 -110 -281
-187 -71 -139 -49 -248 55 -279 50 -15 105 3 190 61 144 97 279 151 556 219
179 44 218 58 264 97 42 35 64 79 66 133 6 103 -24 132 -137 134 -46 1 -94 1
-108 -1z"/>
<path d="M5747 3164 c-1 -1 -55 -4 -120 -7 -137 -7 -167 -20 -197 -84 -24 -50
-29 -186 -7 -200 6 -4 118 -8 249 -9 470 -4 696 -31 932 -113 33 -12 69 -21
82 -21 36 0 74 40 94 99 16 47 16 59 4 103 -18 68 -56 124 -103 147 -37 19
-59 24 -186 36 -33 3 -78 8 -100 10 -22 3 -69 7 -105 10 -36 3 -78 8 -95 10
-80 11 -438 27 -448 19z"/>
<path d="M4315 2879 c-89 -8 -221 -35 -292 -60 -113 -39 -151 -92 -140 -198 6
-53 33 -171 42 -179 2 -2 61 10 132 26 231 56 319 67 513 67 187 0 321 -20
459 -69 95 -34 177 -9 213 64 22 45 22 73 1 117 -23 50 -69 76 -223 126 -277
92 -498 125 -705 106z"/>
<path d="M3555 2761 c-44 -16 -177 -67 -295 -113 -118 -47 -255 -100 -305
-118 -98 -36 -125 -50 -168 -89 -30 -27 -70 -97 -80 -142 -10 -39 -20 -159
-14 -159 3 0 43 16 89 36 316 137 528 192 763 201 88 3 171 10 185 17 13 6 38
30 54 53 26 37 30 51 29 110 0 56 -5 79 -31 130 -53 103 -101 119 -227 74z"/>
<path d="M5407 2746 c-41 -28 -56 -73 -54 -168 3 -104 15 -117 89 -98 29 7 73
15 98 16 25 2 69 7 98 12 78 13 384 6 477 -11 104 -20 191 -49 285 -97 91 -45
127 -54 166 -40 35 13 90 65 110 102 33 64 5 151 -62 190 -28 16 -127 39 -229
52 -22 3 -87 12 -145 21 -173 24 -294 32 -638 38 -153 4 -166 2 -195 -17z"/>
<path d="M4360 2423 c-75 -7 -219 -34 -273 -51 -106 -35 -141 -74 -139 -152 1
-55 12 -82 50 -122 39 -42 76 -44 184 -9 221 70 414 73 718 11 172 -35 209
-37 242 -10 87 68 43 236 -82 313 -34 21 -44 22 -350 22 -173 1 -331 -1 -350
-2z"/>
<path d="M5668 2395 c-2 -1 -39 -5 -83 -9 -80 -6 -180 -27 -215 -46 -68 -37
-117 -199 -76 -256 14 -19 16 -19 103 0 220 46 493 19 807 -81 163 -52 268
-27 319 77 55 110 7 183 -159 240 -158 55 -312 78 -521 78 -94 0 -173 -1 -175
-3z"/>
<path d="M3687 2294 c-1 -1 -42 -4 -92 -8 -49 -3 -101 -8 -115 -10 -14 -3 -59
-10 -100 -16 -157 -24 -364 -87 -495 -150 -106 -52 -166 -130 -167 -219 0 -92
55 -163 121 -155 36 4 285 89 421 144 130 52 205 77 261 85 24 3 53 8 64 10
11 2 70 4 131 4 139 1 160 13 157 86 -2 57 -21 140 -40 178 -17 33 -69 58
-114 55 -16 -1 -31 -3 -32 -4z"/>
<path d="M4426 2030 c-121 -15 -280 -51 -321 -73 -52 -29 -85 -79 -85 -129 0
-55 23 -94 62 -107 54 -17 225 -6 294 19 155 58 259 58 479 3 176 -44 259 -21
272 75 7 56 -13 85 -85 121 -123 61 -252 91 -422 95 -69 2 -156 0 -194 -4z"/>
<path d="M5513 2009 c-85 -10 -178 -35 -209 -55 -43 -29 -72 -114 -59 -175 12
-52 37 -57 288 -60 125 -1 274 -9 330 -16 104 -13 269 -55 320 -80 41 -21 94
-19 125 3 60 44 101 188 68 238 -8 14 -23 27 -33 30 -18 5 -656 107 -753 120
-8 1 -43 -1 -77 -5z"/>
<path d="M3540 1839 c-569 -134 -582 -139 -644 -211 -117 -136 -94 -291 40
-260 21 5 154 53 294 107 331 127 364 136 517 136 67 -1 129 2 138 5 9 4 21
18 29 33 36 76 5 175 -68 210 -59 29 -112 26 -306 -20z"/>
<path d="M4425 1645 c-168 -22 -299 -62 -338 -103 -35 -38 -44 -91 -19 -122
18 -22 23 -23 148 -20 442 10 486 8 672 -31 73 -15 136 -4 174 30 26 23 32 37
36 84 4 49 1 58 -20 80 -22 21 -137 64 -223 83 -62 13 -331 13 -430 -1z"/>
<path d="M5395 1609 c-170 -25 -205 -50 -205 -147 0 -100 6 -103 267 -101 206
2 285 -6 393 -37 101 -29 154 -36 233 -32 92 6 121 22 155 88 35 69 30 94 -20
117 -67 31 -252 81 -373 102 -119 20 -346 25 -450 10z"/>
<path d="M3540 1469 c-577 -212 -568 -207 -577 -291 -4 -37 -1 -49 20 -74 40
-47 52 -45 307 61 265 110 346 133 515 141 75 3 106 9 125 23 29 21 38 72 19
107 -20 38 -159 85 -242 83 -18 0 -93 -23 -167 -50z"/>
<path d="M4275 1293 c-47 -10 -113 -47 -128 -73 -25 -42 -22 -86 9 -117 24
-24 29 -25 102 -20 42 4 107 13 145 20 120 25 199 21 332 -13 149 -39 211 -42
252 -12 33 23 57 70 51 98 -5 27 -55 57 -150 90 -83 29 -84 29 -338 30 -140 1
-264 0 -275 -3z"/>
<path d="M5348 1245 c-2 -2 -30 -4 -63 -6 -80 -3 -113 -16 -130 -50 -32 -60
-11 -112 40 -103 11 3 70 5 130 6 124 1 231 -16 439 -68 144 -36 192 -39 249
-13 51 23 68 108 28 140 -29 23 -140 57 -251 76 -73 12 -433 27 -442 18z"/>
<path d="M3750 1205 c-30 -9 -120 -37 -200 -64 -80 -27 -181 -59 -225 -71
-138 -38 -175 -69 -175 -146 0 -74 50 -122 112 -109 16 4 70 25 121 47 220 95
426 164 565 189 40 7 75 16 78 21 9 14 -54 95 -90 117 -46 29 -118 34 -186 16z"/>
<path d="M4540 1002 c-25 -2 -106 -12 -180 -22 -126 -19 -137 -22 -162 -50
-61 -66 -23 -103 117 -114 44 -3 89 -8 100 -10 11 -2 63 -7 115 -11 52 -4 102
-9 111 -10 9 -2 82 -7 162 -10 l145 -7 26 25 c30 30 32 44 12 91 -34 82 -224
133 -446 118z"/>
<path d="M5280 983 c-67 -9 -112 -27 -140 -60 -39 -43 -40 -85 -4 -118 30 -28
55 -30 135 -14 120 23 392 16 589 -16 25 -4 90 27 90 42 0 11 -75 57 -125 78
-136 56 -422 102 -545 88z"/>
<path d="M3799 915 c-41 -12 -131 -47 -200 -77 -69 -31 -150 -63 -179 -72 -88
-26 -112 -66 -71 -117 15 -19 30 -24 85 -27 97 -6 170 11 352 84 89 35 173 64
187 64 39 0 75 17 82 39 9 30 -20 88 -57 111 -42 26 -99 24 -199 -5z"/>
<path d="M5375 699 c-34 -5 -110 -21 -170 -36 -86 -22 -112 -33 -126 -53 -19
-25 -31 -92 -20 -107 3 -4 53 -8 111 -9 88 0 130 -7 255 -39 110 -28 171 -38
231 -39 74 -1 84 2 119 28 37 29 74 93 75 131 1 97 -235 158 -475 124z"/>
<path d="M4333 690 c-85 -17 -105 -42 -106 -129 0 -97 34 -135 154 -166 55
-15 232 -17 287 -4 20 5 68 13 106 19 83 12 122 38 136 89 28 104 -26 154
-200 186 -56 11 -331 14 -377 5z"/>
<path d="M3811 620 c-68 -14 -192 -58 -228 -80 -43 -26 -45 -74 -7 -119 28
-34 56 -42 154 -43 65 -1 272 32 323 51 38 15 62 74 51 120 -15 57 -50 75
-157 77 -50 2 -112 -1 -136 -6z"/>
<path d="M5082 364 c-72 -36 -106 -94 -100 -166 4 -41 11 -57 34 -76 24 -21
34 -24 79 -18 28 3 110 26 181 50 71 24 155 47 187 51 45 5 61 12 73 30 20 31
8 71 -28 98 -38 29 -178 56 -284 57 -77 0 -97 -4 -142 -26z"/>
<path d="M3938 320 c-62 -8 -90 -33 -86 -79 3 -35 6 -38 126 -98 146 -75 186
-81 233 -33 35 35 33 55 -10 110 -59 75 -158 112 -263 100z"/>
<path d="M4729 296 c-5 -5 -205 -17 -279 -17 -81 0 -116 -14 -129 -51 -15 -43
-14 -56 9 -103 31 -65 126 -107 265 -119 88 -7 247 50 281 102 12 17 18 46 18
80 0 73 -31 105 -107 109 -30 1 -56 1 -58 -1z"/>
</g>
</svg>
