<?xml version="1.0" encoding="UTF-8" standalone="no"?>
<svg
   height="24"
   viewBox="0 -960 960 960"
   width="24"
   version="1.1"
   id="svg826"
   sodipodi:docname="list_FILL0_wght400_GRAD0_opsz24_white.svg"
   inkscape:version="1.1.2 (b8e25be8, 2022-02-05)"
   xmlns:inkscape="http://www.inkscape.org/namespaces/inkscape"
   xmlns:sodipodi="http://sodipodi.sourceforge.net/DTD/sodipodi-0.dtd"
   xmlns="http://www.w3.org/2000/svg"
   xmlns:svg="http://www.w3.org/2000/svg">
  <defs
     id="defs830" />
  <sodipodi:namedview
     id="namedview828"
     pagecolor="#ffffff"
     bordercolor="#cccccc"
     borderopacity="1"
     inkscape:pageshadow="0"
     inkscape:pageopacity="1"
     inkscape:pagecheckerboard="0"
     showgrid="false"
     inkscape:zoom="28.916667"
     inkscape:cx="12.017291"
     inkscape:cy="12"
     inkscape:window-width="1312"
     inkscape:window-height="916"
     inkscape:window-x="0"
     inkscape:window-y="387"
     inkscape:window-maximized="0"
     inkscape:current-layer="svg826" />
  <path
     d="M280-600v-80h560v80H280Zm0 160v-80h560v80H280Zm0 160v-80h560v80H280ZM160-600q-17 0-28.5-11.5T120-640q0-17 11.5-28.5T160-680q17 0 28.5 11.5T200-640q0 17-11.5 28.5T160-600Zm0 160q-17 0-28.5-11.5T120-480q0-17 11.5-28.5T160-520q17 0 28.5 11.5T200-480q0 17-11.5 28.5T160-440Zm0 160q-17 0-28.5-11.5T120-320q0-17 11.5-28.5T160-360q17 0 28.5 11.5T200-320q0 17-11.5 28.5T160-280Z"
     id="path824"
     style="fill:#ffffff" />
</svg>
